<?xml version="1.0" encoding="utf-8"?>
<!-- Generator: Adobe Illustrator 21.0.0, SVG Export Plug-In . SVG Version: 6.00 Build 0)  -->
<svg version="1.1" id="Calque_1" xmlns="http://www.w3.org/2000/svg" xmlns:xlink="http://www.w3.org/1999/xlink" x="0px" y="0px"
	 viewBox="0 0 437 96" style="enable-background:new 0 0 437 96;" xml:space="preserve">
<style type="text/css">
	.st0{fill:#111111;}
	.st1{fill:#000111;}
</style>
<g>
	<path class="st0" d="M135,70c-2.8-1.5-5-3.5-6.6-6.2c-1.6-2.7-2.3-5.7-2.3-9.2V40.9c0-3.4,0.8-6.5,2.3-9.1c1.6-2.6,3.8-4.7,6.6-6.1
		c2.8-1.5,6.1-2.2,9.8-2.2c3.7,0,7,0.7,9.8,2c2.8,1.4,5,3.3,6.6,5.8c1.6,2.5,2.3,5.3,2.3,8.6c0,0.4-0.4,0.7-1.2,0.7l-10.2,0.7h-0.3
		c-0.7,0-1-0.1-1-0.3v-0.4c0-1.9-0.5-3.3-1.6-4.5c-1.1-1.1-2.5-1.7-4.4-1.7c-1.8,0-3.3,0.6-4.4,1.7c-1.1,1.1-1.6,2.6-1.6,4.5v14.6
		c0,1.8,0.5,3.3,1.6,4.4c1.1,1.1,2.5,1.7,4.4,1.7c1.8,0,3.3-0.6,4.4-1.7c1.1-1.1,1.6-2.6,1.6-4.4c0-0.2,0.1-0.4,0.4-0.6
		c0.2-0.2,0.6-0.2,1-0.2l10.2,0.5c0.8,0,1.2,0.2,1.2,0.3v0.3c0,3.3-0.8,6.2-2.3,8.6c-1.6,2.5-3.8,4.4-6.6,5.8
		c-2.8,1.4-6.1,2.1-9.8,2.1C141.1,72.2,137.8,71.5,135,70z"/>
	<path class="st0" d="M191.1,36.5c0.6,0.3,0.8,0.9,0.7,1.6l-1.6,10c-0.1,0.8-0.6,1.1-1.5,0.9c-0.5-0.1-1.1-0.2-1.8-0.2
		c-0.6,0-1.3,0.1-2,0.2c-1.2,0.2-2.2,0.7-3,1.5c-0.8,0.7-1.3,1.8-1.3,3v16.8c0,0.9-0.4,1.3-1.3,1.3H169c-0.9,0-1.3-0.4-1.3-1.3V37.5
		c0-0.9,0.4-1.3,1.3-1.3h10.2c0.9,0,1.3,0.4,1.3,1.3v1c0,0.2,0.1,0.4,0.2,0.5c0.1,0.1,0.2,0,0.4-0.1c1.7-2,3.9-3.1,6.5-3.1
		C189,35.8,190.2,36,191.1,36.5z"/>
	<path class="st0" d="M218,37.3c2.6,1,4.6,2.5,6.1,4.3c1.5,1.8,2.2,3.8,2.2,5.9v22.9c0,0.9-0.4,1.3-1.3,1.3h-10.2
		c-0.9,0-1.3-0.4-1.3-1.3v-1.2c0-0.2-0.1-0.4-0.2-0.4c-0.1,0-0.3,0-0.4,0.2c-0.8,1.1-1.8,2-3.2,2.5c-1.4,0.5-3.1,0.8-5.1,0.8
		c-3.7,0-6.7-0.9-8.8-2.6c-2.1-1.7-3.2-4.2-3.2-7.5c0-3.4,1.2-6.1,3.6-8c2.4-1.9,6-2.8,10.6-2.8h6.1c0.4,0,0.5-0.2,0.5-0.5v-1
		c0-1-0.4-1.7-1.1-2.3c-0.7-0.6-1.6-0.9-2.8-0.9c-0.8,0-1.5,0.1-2.1,0.4c-0.6,0.2-1.1,0.6-1.3,1c-0.3,0.4-0.5,0.6-0.7,0.7
		c-0.2,0.1-0.5,0.2-0.8,0.1l-10.5-1.4c-0.8-0.1-1.2-0.4-1.2-1c0.2-2,1-3.9,2.5-5.5c1.5-1.6,3.4-2.9,5.8-3.9c2.4-1,5.1-1.4,8-1.4
		C212.6,35.7,215.5,36.2,218,37.3z M212.2,62.2c0.9-0.8,1.4-1.8,1.4-3.1v-0.7c0-0.4-0.2-0.5-0.5-0.5h-3.2c-2.9,0-4.3,0.9-4.3,2.8
		c0,0.8,0.3,1.5,0.8,2c0.5,0.5,1.3,0.7,2.3,0.7C210.1,63.3,211.3,63,212.2,62.2z"/>
	<path class="st0" d="M254,37.5v7.6c0,0.9-0.4,1.3-1.3,1.3h-5.5c-0.4,0-0.5,0.2-0.5,0.5v23.4c0,0.9-0.4,1.3-1.3,1.3h-10.2
		c-0.9,0-1.3-0.4-1.3-1.3V47c0-0.4-0.2-0.5-0.5-0.5h-3c-0.9,0-1.3-0.4-1.3-1.3v-7.6c0-0.9,0.4-1.3,1.3-1.3h3c0.4,0,0.5-0.2,0.5-0.5
		v-1.9c0-3.5,1-6,3-7.6c2-1.5,5.2-2.3,9.8-2.3c1.1,0,2,0,2.6,0.1h2.6c0.9,0,1.3,0.4,1.3,1.3v5.9c0,0.9-0.4,1.3-1.3,1.3h-2.6
		c-0.9,0.1-1.6,0.3-1.9,0.7c-0.4,0.4-0.6,1-0.6,1.7v0.7c0,0.4,0.2,0.5,0.5,0.5h5.5C253.6,36.2,254,36.7,254,37.5z"/>
	<path class="st0" d="M279.5,46.5h-5.2c-0.4,0-0.5,0.2-0.5,0.5v10.1c0,2.3,0.8,3.4,2.5,3.4h2.2c0.9,0,1.3,0.4,1.3,1.3V70
		c0,0.8-0.4,1.2-1.2,1.3c-1.8,0.1-3.4,0.2-4.9,0.2c-4.1,0-7.2-0.6-9.1-1.9c-2-1.3-3-3.7-3-7.2V47c0-0.4-0.2-0.5-0.5-0.5h-3.2
		c-0.9,0-1.3-0.4-1.3-1.3v-7.6c0-0.9,0.4-1.3,1.3-1.3h3.2c0.4,0,0.5-0.2,0.5-0.5V28c0-0.9,0.4-1.3,1.3-1.3h9.7
		c0.9,0,1.3,0.4,1.3,1.3v7.7c0,0.4,0.2,0.5,0.5,0.5h5.2c0.9,0,1.3,0.4,1.3,1.3v7.6C280.8,46,280.3,46.5,279.5,46.5z"/>
	<path class="st0" d="M292.9,70.6l-9.7-32.9c0-0.1-0.1-0.3-0.1-0.5c0-0.6,0.4-1,1.2-1h10.6c0.8,0,1.2,0.4,1.4,1.2l3.2,15.7
		c0.1,0.2,0.2,0.3,0.4,0.3c0.2,0,0.3-0.1,0.3-0.3l3.5-15.6c0.1-0.8,0.6-1.2,1.4-1.2h9.3c0.8,0,1.2,0.4,1.4,1.2l3.7,15.7
		c0.1,0.2,0.2,0.3,0.4,0.3c0.2,0,0.3-0.1,0.3-0.3l3.7-15.8c0.2-0.8,0.7-1.2,1.4-1.2l10.6,0.1c0.5,0,0.8,0.1,1,0.4
		c0.2,0.2,0.2,0.6,0.1,1.1l-9.9,32.8c-0.2,0.7-0.7,1.1-1.5,1.1h-10.6c-0.7,0-1.2-0.4-1.4-1.1l-3.6-12.8c0-0.2-0.1-0.3-0.3-0.3
		c-0.1,0-0.3,0.1-0.3,0.4l-2.9,12.7c-0.1,0.8-0.6,1.2-1.4,1.2h-10.6C293.6,71.7,293.1,71.3,292.9,70.6z"/>
	<path class="st0" d="M343.3,68.7c-3-2.3-4.9-5.4-5.9-9.4c-0.5-1.6-0.7-3.4-0.7-5.4c0-2.2,0.3-4.2,0.8-6.1c1.1-3.8,3.1-6.7,6-8.9
		c2.9-2.2,6.5-3.2,10.7-3.2c4.2,0,7.8,1.1,10.7,3.2c2.9,2.2,4.9,5.1,6,8.8c0.5,1.9,0.8,3.9,0.8,6.1c0,1.7-0.2,3.5-0.5,5.2
		c-1,4.1-2.9,7.3-5.9,9.7c-3,2.4-6.7,3.6-11.1,3.6C349.9,72.2,346.3,71,343.3,68.7z M357.1,60c0.7-0.8,1.2-1.8,1.5-3.2
		c0.2-0.9,0.3-1.9,0.3-3.1c0-1-0.1-2.1-0.3-3.1c-0.7-2.7-2.1-4-4.3-4c-2.3,0-3.7,1.3-4.3,4c-0.2,0.8-0.3,1.8-0.3,3.1
		c0,1.2,0.1,2.2,0.3,3.1c0.7,2.9,2.1,4.4,4.4,4.4C355.4,61.2,356.4,60.8,357.1,60z"/>
	<path class="st0" d="M398.8,36.5c0.6,0.3,0.8,0.9,0.7,1.6l-1.6,10c-0.1,0.8-0.6,1.1-1.5,0.9c-0.5-0.1-1.1-0.2-1.8-0.2
		c-0.6,0-1.3,0.1-2,0.2c-1.2,0.2-2.2,0.7-3,1.5c-0.8,0.7-1.3,1.8-1.3,3v16.8c0,0.9-0.4,1.3-1.3,1.3h-10.2c-0.9,0-1.3-0.4-1.3-1.3
		V37.5c0-0.9,0.4-1.3,1.3-1.3H387c0.9,0,1.3,0.4,1.3,1.3v1c0,0.2,0.1,0.4,0.2,0.5c0.1,0.1,0.2,0,0.4-0.1c1.7-2,3.9-3.1,6.5-3.1
		C396.8,35.8,397.9,36,398.8,36.5z"/>
	<path class="st0" d="M402.5,70.4V25.3c0-0.9,0.4-1.3,1.3-1.3H414c0.9,0,1.3,0.4,1.3,1.3v18.9c0,0.2,0.1,0.4,0.2,0.4
		c0.2,0,0.3,0,0.4-0.2l5.4-7.3c0.4-0.5,0.9-0.8,1.6-0.8h11.6c0.7,0,1.1,0.2,1.1,0.7c0,0.3-0.1,0.6-0.3,0.8L427,49.2
		c-0.2,0.3-0.2,0.5-0.1,0.7l9.8,20.2c0.1,0.1,0.1,0.3,0.1,0.6c0,0.6-0.4,0.9-1.1,0.9h-10.7c-0.7,0-1.2-0.3-1.5-1L418.3,58
		c-0.1-0.2-0.2-0.3-0.4-0.3c-0.2,0-0.3,0.1-0.4,0.3l-2,3.4c-0.1,0.3-0.2,0.5-0.2,0.7v8.3c0,0.9-0.4,1.3-1.3,1.3h-10.2
		C402.9,71.7,402.5,71.2,402.5,70.4z"/>
</g>
<path class="st1" d="M48.3-0.5C21.6-0.5,0,21.2,0,47.8s21.6,48.3,48.3,48.3c26.7,0,48.3-21.6,48.3-48.3S74.9-0.5,48.3-0.5z M52.2,59
	c-0.1,0.5-0.4,0.9-0.8,1.2c-0.8,0.5-1.8,0.3-2.8,0.1c-0.3-0.1-0.9-0.2-1.1-0.2c-0.9,0.2-2.3,0.6-4,2.6c-1.3,1.6-1.4,2.4-1.5,3.3
	c0,0.3-0.1,0.5-0.1,0.8c-0.4,1.9-2,4.6-4.4,5.7c-0.2,0.1-0.4,0.1-0.5,0.1c-0.5,0-0.9-0.3-1.1-0.7c-0.3-0.6,0-1.4,0.6-1.7
	c1.7-0.8,2.8-2.9,3-4c0-0.2,0.1-0.4,0.1-0.6c0.2-1.1,0.4-2.4,2.1-4.5c2.2-2.7,4.3-3.2,5.3-3.4c0.7-0.2,1.5,0,2.3,0.2
	c0.2,0,0.4,0.1,0.7,0.1c0-0.3-0.3-0.7-0.9-1.2c-1.1-1-3.9-0.4-5.3,0.4c-1.9,1.1-3.4,1.3-4.5,1.1c0.1,0.4,0.2,0.7,0.2,0.9
	c0.1,0.7-0.3,1.3-1,1.5c-0.1,0-0.2,0-0.3,0c-0.6,0-1.1-0.4-1.2-1C36.5,58,32,37.9,31.3,34.7c-0.1,0-0.3,0-0.6,0
	c-0.2,0-0.4,0.3-0.5,0.6c0.2,1.8,1,11.4,1.5,14.8c0.1,0.7-0.4,1.3-1.1,1.4c-0.7,0.1-1.3-0.4-1.4-1.1c-0.1-0.9-0.2-2.1-0.4-3.6
	c-0.7-0.1-1.5,0-1.7,0.4c-0.5,1-0.3,2.4-0.2,3.6c0,0.3,0.1,0.6,0.1,0.9c0.1,0.7-0.4,1.3-1.1,1.4c0,0-0.1,0-0.1,0
	c-0.6,0-1.2-0.5-1.2-1.1c0-0.3-0.1-0.6-0.1-0.9c-0.1-0.7-0.2-1.5-0.2-2.4c-0.7,0-1.4,0-1.6,0.4c-0.5,1.1-0.3,2.4-0.2,3.6
	c0,0.3,0.1,0.6,0.1,0.9c0.1,0.7-0.4,1.3-1.1,1.4c0,0-0.1,0-0.1,0c-0.6,0-1.2-0.5-1.2-1.1c0-0.3-0.1-0.6-0.1-0.9
	c0-0.4-0.1-0.9-0.1-1.3c-0.2,0-0.4,0-0.5,0c-0.1,0-0.4,0.1-0.6,0.7c-0.9,3.1,0.7,12.1,1.2,13.8c0.2,0.8,1.2,1.8,1.8,2.4
	c0.3,0.4,0.6,0.6,0.8,0.8c0.4,0.6,1,2.3,1.2,3c0.2,0.7-0.1,1.4-0.8,1.6c-0.1,0-0.3,0.1-0.4,0.1c-0.5,0-1-0.3-1.2-0.9
	c-0.3-1-0.8-2.2-0.9-2.4c-0.1-0.1-0.3-0.3-0.5-0.5c-0.8-0.8-2-2-2.4-3.4c-0.4-1.3-2.4-11-1.2-15.2c0.3-1.2,1.1-2,2.2-2.4
	c0.4-0.1,0.9-0.1,1.4-0.1c0.1-0.4,0.2-0.8,0.4-1.2c0.8-1.7,2.9-2,4.4-1.8c0-0.1,0-0.1,0.1-0.2c0.7-1.5,2.3-1.9,3.7-1.8
	c-0.4-4.4-0.9-9-0.9-9.1c0-0.2,0-0.3,0-0.5c0.1-0.2,0.7-2.3,2.7-2.5c2.2-0.3,3,1,3.1,1.2c0.1,0.1,0.1,0.2,0.1,0.3
	c0.2,0.8,3.2,14.6,4.8,21.5c1,0.7,2.3,0.6,4-0.3c1.6-0.9,5.8-2.1,8.2-0.1C51.8,55.9,52.6,57.1,52.2,59z M80.1,43.9
	c-0.3,1.2-1.1,2-2.2,2.4c-0.3,0.1-0.6,0.1-0.9,0.1c-0.2,0-0.3,0-0.5,0c-0.1,0.4-0.2,0.8-0.4,1.2c-0.7,1.4-2.2,1.8-3.5,1.8
	c-0.3,0-0.6,0-0.8-0.1c0,0.1,0,0.1-0.1,0.2c-0.7,1.4-2.2,1.8-3.5,1.8c-0.1,0-0.1,0-0.2,0c0.4,4.4,0.9,9,0.9,9.1c0,0.2,0,0.3,0,0.5
	c-0.1,0.2-0.7,2.3-2.7,2.5c-0.2,0-0.4,0-0.6,0c-1.8,0-2.4-1.1-2.5-1.2c-0.1-0.1-0.1-0.2-0.1-0.3c-0.2-0.8-3.2-14.6-4.8-21.5
	c-1-0.7-2.3-0.6-4,0.3c-0.9,0.5-2.8,1.2-4.7,1.2c-1.3,0-2.5-0.3-3.5-1.1c-1.3-1.1-2.1-2.3-1.7-4.2c0.1-0.5,0.4-0.9,0.8-1.2
	C46,35,47,35.2,48,35.4c0.3,0.1,0.9,0.2,1.1,0.2c0.9-0.2,2.3-0.6,4-2.6c1.3-1.6,1.4-2.4,1.5-3.3c0-0.3,0.1-0.5,0.1-0.8
	c0.4-1.9,2-4.6,4.4-5.7c0.6-0.3,1.4,0,1.7,0.6c0.3,0.6,0,1.4-0.6,1.7c-1.7,0.8-2.8,2.9-3,4c0,0.2-0.1,0.4-0.1,0.6
	c-0.2,1.1-0.4,2.4-2.1,4.5c-2.2,2.7-4.3,3.2-5.3,3.4c-0.7,0.2-1.5,0-2.3-0.2c-0.2,0-0.4-0.1-0.7-0.1c0,0.3,0.3,0.7,0.9,1.2
	c1.1,1,3.9,0.4,5.3-0.4c1.9-1.1,3.4-1.3,4.5-1.1c-0.1-0.4-0.2-0.7-0.2-0.9c-0.1-0.7,0.3-1.3,1-1.5c0.7-0.1,1.3,0.3,1.5,1
	c0.3,1.4,4.8,21.6,5.5,24.8c0.1,0,0.3,0,0.6,0c0.2,0,0.4-0.3,0.5-0.6c-0.2-1.8-1-11.4-1.5-14.8c-0.1-0.7,0.4-1.3,1.1-1.4
	c0.7-0.1,1.3,0.4,1.4,1.1c0.1,0.9,0.2,2.1,0.4,3.6c0.7,0.1,1.5,0,1.7-0.4c0.5-1,0.3-2.4,0.2-3.6c0-0.3-0.1-0.6-0.1-0.9
	c-0.1-0.7,0.4-1.3,1.1-1.4c0.7-0.1,1.3,0.4,1.4,1.1c0,0.3,0.1,0.6,0.1,0.9c0.1,0.7,0.2,1.5,0.2,2.4c0.7,0,1.4,0,1.6-0.4
	c0.5-1.1,0.3-2.4,0.2-3.6c0-0.3-0.1-0.6-0.1-0.9c-0.1-0.7,0.4-1.3,1.1-1.4c0.7-0.1,1.3,0.4,1.4,1.1c0,0.3,0.1,0.6,0.1,0.9
	c0,0.4,0.1,0.9,0.1,1.3c0.2,0,0.4,0,0.5,0c0.1,0,0.4-0.1,0.6-0.7c0.9-3.1-0.7-12.1-1.2-13.8c-0.2-0.8-1.2-1.8-1.8-2.4
	c-0.3-0.4-0.6-0.6-0.8-0.8c-0.4-0.6-1-2.3-1.2-3c-0.2-0.7,0.1-1.4,0.8-1.6c0.7-0.2,1.4,0.1,1.6,0.8c0.3,1,0.8,2.2,0.9,2.4
	c0.1,0.1,0.3,0.3,0.5,0.5c0.8,0.8,2,2,2.4,3.4C79.3,29.9,81.3,39.7,80.1,43.9z"/>
</svg>
